<svg xmlns="http://www.w3.org/2000/svg" xmlns:xlink="http://www.w3.org/1999/xlink" viewBox="0,0,256,256" width="24px" height="24px" fill-rule="nonzero"><g transform="translate(-7.68,-7.68) scale(1.06,1.06)"><g fill="none" fill-rule="nonzero" stroke="none" stroke-width="1" stroke-linecap="butt" stroke-linejoin="miter" stroke-miterlimit="10" stroke-dasharray="" stroke-dashoffset="0" font-family="none" font-weight="none" font-size="none" text-anchor="none" style="mix-blend-mode: normal"><g transform="scale(10.66667,10.66667)"><circle cx="13" cy="13" r="10" fill="#1b1b1b" opacity="0.25"></circle><circle cx="12" cy="12" r="10" fill="#f6f6f6"></circle><circle cx="12" cy="12" r="8" fill="#ffd54f"></circle><circle cx="12" cy="12" r="6" fill="#fff1a8"></circle><path d="M11,7.5v1.5h2v-1.5c0,-0.276 -0.224,-0.5 -0.5,-0.5h-1c-0.276,0 -0.5,0.224 -0.5,0.5z" fill="#ffd54f"></path><path d="M11,15v1.5c0,0.276 0.224,0.5 0.5,0.5h1c0.276,0 0.5,-0.224 0.5,-0.5v-1.5z" fill="#ffd54f"></path><path d="M12.852,11h-1.852c-0.276,0 -0.5,-0.224 -0.5,-0.5c0,-0.276 0.224,-0.5 0.5,-0.5h3.5c0.276,0 0.5,-0.224 0.5,-0.5v-1c0,-0.276 -0.224,-0.5 -0.5,-0.5h-3.352c-1.308,0 -2.502,0.938 -2.635,2.239c-0.152,1.495 1.022,2.761 2.487,2.761h2c0.276,0 0.5,0.224 0.5,0.5c0,0.276 -0.224,0.5 -0.5,0.5h-3.5c-0.276,0 -0.5,0.224 -0.5,0.5v1c0,0.276 0.224,0.5 0.5,0.5h3.5c1.465,0 2.639,-1.266 2.487,-2.761c-0.133,-1.301 -1.327,-2.239 -2.635,-2.239z" fill="#ffd54f"></path></g></g></g></svg>