<svg xmlns="http://www.w3.org/2000/svg"  viewBox="0 0 24 24" width="48px" height="48px"><path fill="#1b1b1b" d="M22.191,13l0.36-0.793c0.457-1.005,0.476-2.166,0.054-3.185 c-0.422-1.02-1.257-1.827-2.29-2.214l-0.816-0.306L18,6c-0.582-1.552-0.895-2.911-2.553-2.911c-0.573,0-1.129,0.121-1.653,0.359 L13,3.809l-0.793-0.36c-0.524-0.238-1.08-0.359-1.653-0.359c-1.658,0-3.164,1.043-3.746,2.596L6.501,6.501L5.685,6.807 C4.652,7.195,3.817,8.002,3.395,9.021c-0.422,1.02-0.403,2.181,0.054,3.185L3.809,13l-0.36,0.793 c-0.457,1.005-0.476,2.166-0.054,3.185C3.817,17.998,4.967,17.612,6,18l0.501,1.499l0.306,0.816 c0.582,1.553,2.088,2.596,3.746,2.596c0.573,0,1.129-0.121,1.653-0.359L13,22.191l0.793,0.36c0.524,0.238,1.081,0.359,1.653,0.359 c1.658,0,3.164-1.043,3.746-2.596l0.306-0.816l0.816-0.306c1.033-0.388,1.868-1.195,2.291-2.214 c0.422-1.02,0.403-2.181-0.054-3.185L22.191,13z" opacity=".25"/><path fill="#f6f6f6" d="M21.191,12l0.36-0.793c0.457-1.005,0.476-2.166,0.054-3.185c-0.422-1.02-1.257-1.827-2.29-2.214 l-0.816-0.306l-0.306-0.816c-0.582-1.552-2.088-2.596-3.746-2.596c-0.573,0-1.129,0.121-1.653,0.359L12,2.809l-0.793-0.36 c-0.524-0.238-1.08-0.359-1.653-0.359c-1.658,0-3.164,1.043-3.746,2.596L5.501,5.501L4.685,5.807 C3.652,6.195,2.817,7.002,2.395,8.021c-0.422,1.02-0.403,2.181,0.054,3.185L2.809,12l-0.36,0.793 c-0.457,1.005-0.476,2.166-0.054,3.185c0.422,1.02,1.257,1.827,2.291,2.214l0.816,0.306l0.306,0.816 c0.582,1.553,2.088,2.596,3.746,2.596c0.573,0,1.129-0.121,1.653-0.359L12,21.191l0.793,0.36c0.524,0.238,1.081,0.359,1.653,0.359 c1.658,0,3.164-1.043,3.746-2.596l0.306-0.816l0.816-0.306c1.033-0.388,1.868-1.195,2.291-2.214 c0.422-1.02,0.403-2.181-0.054-3.185L21.191,12z"/><path fill="#00b569" d="M18.612,7.679l-0.816-0.306c-0.541-0.203-0.967-0.629-1.17-1.17l-0.306-0.816 c-0.407-1.084-1.646-1.597-2.7-1.118l-0.793,0.36c-0.526,0.239-1.129,0.239-1.655,0l-0.793-0.36 c-1.054-0.479-2.293,0.034-2.7,1.118L7.373,6.203c-0.203,0.541-0.629,0.967-1.17,1.17L5.388,7.679 c-1.084,0.407-1.597,1.646-1.118,2.7l0.36,0.793c0.239,0.526,0.239,1.129,0,1.655l-0.36,0.793c-0.479,1.054,0.034,2.293,1.118,2.7 l0.816,0.306c0.541,0.203,0.967,0.629,1.17,1.17l0.306,0.816c0.407,1.084,1.646,1.597,2.7,1.118l0.793-0.36 c0.526-0.239,1.129-0.239,1.655,0l0.793,0.36c1.054,0.479,2.293-0.034,2.7-1.118l0.306-0.816c0.203-0.541,0.629-0.967,1.17-1.17 l0.816-0.306c1.084-0.407,1.597-1.646,1.118-2.7l-0.36-0.793c-0.239-0.526-0.239-1.129,0-1.655l0.36-0.793 C20.21,9.325,19.696,8.086,18.612,7.679z"/><path fill="#fff" d="M10.646,15.646l-2.813-2.813c-0.195-0.195-0.195-0.512,0-0.707l0.707-0.707 c0.195-0.195,0.512-0.195,0.707,0L11,13.172l3.857-3.857c0.195-0.195,0.512-0.195,0.707,0l0.707,0.707 c0.195,0.195,0.195,0.512,0,0.707l-4.918,4.918C11.158,15.842,10.842,15.842,10.646,15.646z"/></svg>